<svg width="283" height="185" viewBox="0 0 283 185" fill="none" xmlns="http://www.w3.org/2000/svg">
<path d="M242.696 119.19L232.916 116.612L224.674 144.06L234.383 146.667L242.696 119.19Z" fill="#77BFC5"/>
<path d="M234.286 146.667L236.442 146.213L243.897 119.425L242.623 119.016L234.286 146.667Z" fill="#467A7D"/>
<path d="M252.308 70.5619L242.31 68.5246L233.084 117.616L243.173 120.219L252.308 70.5619Z" fill="#8ED0D3"/>
<path d="M245.786 37.2678L255.912 38.9829L252.141 70.929L242.696 68.8818L245.786 37.2678Z" fill="#77BFC5"/>
<path d="M256.002 38.4699L257.114 40.009L253.654 72.1311L252.308 70.9988L256.002 38.4699Z" fill="#5D989E"/>
<path d="M244.036 120.219L242.696 119.856L251.977 70.929L253.509 72.0176L244.036 120.219Z" fill="#4F8B92"/>
<path d="M265.275 99.7814L270.33 100.811L253.226 141.858L248.703 140.873L265.275 99.7814Z" fill="#4F8B92"/>
<path d="M275.136 68.4709L270.151 67.3224L265.524 98.7529L270.489 99.7814L275.136 68.4709Z" fill="#5D989E"/>
<path d="M270.33 67.6835L265.211 63.7159L260.718 96.2441L265.551 99.7814L270.33 67.6835Z" fill="#77BFC5"/>
<path d="M260.299 96.1749L259.516 93.9241L264.252 62.5137L265.524 63.7109L260.299 96.1749Z" fill="#5D989E"/>
<path d="M249.36 140.656L245.099 137.091L260.768 96.1749L265.524 99.658L249.36 140.656Z" fill="#8ED0D3"/>
<path d="M229.48 151.851L244.508 137.049L248.703 140.571L233.556 155.082L229.48 151.851Z" fill="#77BFC5"/>
<path d="M244.835 137.049L243.897 134.709L260.046 93.7705L260.718 96.0106L244.835 137.049Z" fill="#4F8B92"/>
<path d="M228.278 149.225L229.49 151.475L245.099 136.929L244.153 134.645L228.278 149.225Z" fill="#467A7D"/>
<path d="M264.322 62.5343L268.685 62.5137L272.589 64.3326L275.136 67.1692L275.008 68.5246L270.257 67.4361L265.369 63.6752" fill="white"/>
<path d="M233.084 155.079L248.989 140.656L253.509 141.596L236.872 156.284L233.084 155.079Z" fill="#467A7D"/>
<path d="M224.349 153.603L217.465 155.082L223.007 120.256L230.681 120.219L224.349 153.603Z" fill="#77BFC5"/>
<path d="M223.473 120.219L227.034 54.5452L235.487 54.0984L231.294 120.181L223.473 120.219Z" fill="#8ED0D3"/>
<path d="M227.235 55.3005L227.077 2.44829L235.487 2.40437L235.202 54.7544L227.235 55.3005Z" fill="#77BFC5"/>
<path d="M226.818 2.33648L224.674 1.20219L225.184 54.6439L227.077 55.3005L226.818 2.33648Z" fill="#5D989E"/>
<path d="M225.058 54.0984L221.07 119.563L222.963 120.219L227.077 54.7404L225.058 54.0984Z" fill="#4F8B92"/>
<path d="M217.923 155.082L216.264 153.555L221.857 120.219L223.472 120.846L217.923 155.082Z" fill="#467A7D"/>
<path d="M235.487 2.34244L226.603 2.40437L224.674 1.24898L225.83 0.0318483L232.194 0L234.458 0.717393L235.487 2.34244Z" fill="white"/>
<path d="M6.00732 157.487L7.67655 157.486L14.4176 182.732L6.00732 157.487Z" fill="#21ED94"/>
<path d="M15.6191 180.422L14.7899 181.53L8.41028 157.583L9.45297 156.284L15.6191 180.422Z" fill="#8DFF1A"/>
<path d="M13.2161 183.934L10.2428 197.158L6.00732 193.669L13.2161 183.934Z" fill="#057346"/>
<path d="M9.61169 195.956L16.8205 184.519L12.8013 183.934L9.61169 195.956Z" fill="#0BAB5C"/>
<path d="M8.41028 162.295L13.2233 183.549L15.6191 183.934L8.41028 162.295Z" fill="#42B98C"/>
<path d="M7.31462 156.408L6.00732 157.486L8.21972 157.486L9.61172 156.284L7.31462 156.408Z" fill="#FBFBFB"/>
<path d="M14.9303 195.956L22.8278 185.553L18.6606 182.732L13.2161 194.95L14.9303 195.956Z" fill="#42B98C"/>
<path d="M13.2161 193.867L16.6208 195.956L21.6263 184.935L20.0509 183.934L13.2161 193.867Z" fill="#42B98C"/>
<path d="M24.0763 169.508L22.8279 154L26.308 137.049L27.6337 137.372L24.0763 169.508Z" fill="#8DFF1A"/>
<path d="M21.6263 175.519L30.0366 203.169L24.0494 193.502L21.6274 184.207L21.6263 175.519Z" fill="#21ED94"/>
<path d="M21.6263 175.814L25.2307 187.541L22.0201 153.88L21.6263 175.814Z" fill="#00FF86"/>
<path d="M18.022 203.169L24.0293 193.32L21.8002 183.934L18.022 203.169Z" fill="#42B98C"/>
<path d="M19.8515 194.754L21.6264 183.934L14.4176 185.088L19.8515 194.754Z" fill="#0BAB5C"/>
<path d="M21.6253 174.287L13.3688 145.464L10.8132 150.972L21.6264 183.934L21.6253 174.287Z" fill="#00FF86"/>
<path d="M21.6264 184.04L10.8132 150.273L14.4946 185.137L21.6264 184.04Z" fill="#21ED94"/>
<path d="M13.2161 145.464L0 116.821L2.33669 116.612L13.2161 145.464Z" fill="#00FF86"/>
<path d="M10.6309 151.475L13.2161 145.798L0 116.612L10.6309 151.475Z" fill="#8DFF1A"/>
<path d="M31.2381 146.667L26.4323 161.276L29.806 165.902L31.2381 146.667Z" fill="#8DFF1A"/>
<path d="M26.4323 161.093L31.2381 146.289L29.5311 144.262L26.4323 161.093Z" fill="#00FF86"/>
<path d="M26.4323 185.535L32.4396 186.339L29.6424 165.902L26.4323 185.535Z" fill="#21ED94"/>
<path d="M26.4323 161.093L30.0366 165.749L26.8777 185.137L26.4323 161.093Z" fill="#42B98C"/>
<path d="M153.788 138.899L120.146 151.475L129.496 103.388L153.788 138.899Z" fill="#754C24"/>
<path d="M218.667 198.361H129.758L187.829 165.902L218.667 198.361Z" fill="#603813"/>
<path d="M212.659 125.678L188.053 165.902L153.788 139.011L175.405 105.792L212.659 125.678Z" fill="#8C6239"/>
<path d="M249.905 151.665L187.429 165.902L212.188 125.027L249.905 151.665Z" fill="#A67C52"/>
<path d="M293.157 167.914L279.328 198.361H218.667L249.4 151.475L293.157 167.914Z" fill="#8C6239"/>
<path d="M328 198.361H279.941L293.617 168.306L328 198.361Z" fill="#A67C52"/>
<path d="M175.414 105.462L153.902 139.454L129.758 103.388L175.414 105.462Z" fill="#A67C52"/>
<path d="M187.429 166.111L129.404 198.361L120.146 151.475L187.429 166.111Z" fill="#754C24"/>
<path d="M249.905 151.475L218.701 198.361L187.429 165.83L249.905 151.475Z" fill="#754C24"/>
<path d="M187.429 165.902L120.146 151.73L153.458 139.454L187.429 165.902Z" fill="#603813"/>
<path d="M80.4981 174.727L71.2625 198.361H13.2161L28.6803 163.497L80.4981 174.727Z" fill="#603813"/>
<path d="M129.758 198.361H70.8865L80.2538 174.317L129.758 198.361Z" fill="#754C24"/>
<path d="M120.147 151.745L80.3556 174.317L50.4615 124.95L82.7366 96.1749L120.147 151.745Z" fill="#8C6239"/>
<path d="M80.4982 174.317L28.8352 162.983L51.0138 125.027L80.4982 174.317Z" fill="#A67C52"/>
<path d="M129.758 103.631L120.231 151.475L82.9011 96.1749L129.758 103.631Z" fill="#A67C52"/>
<path d="M120.226 151.475L129.758 198.361L80.4982 174.252L120.226 151.475Z" fill="#603813"/>
<path d="M108.132 58.9071L114.139 111.803L112.124 110.6L108.132 58.9071Z" fill="#8B52BD"/>
<path d="M149.707 63.1628L147.084 63.7158L145.377 62.7296L145.617 61.1639L147.882 60.1093L150.183 60.9867L149.707 63.1628Z" fill="#BC6DDD"/>
<path d="M111.622 93.868L111.736 94.9727L80.4982 80.5464L111.622 93.868Z" fill="#EAB0F5"/>
<path d="M108.132 58.9071L113.861 111.803L115.341 110.915L108.132 58.9071Z" fill="#EAB0F5"/>
<path d="M111.736 84.0227L111.928 85.3552L146.579 62.5137L111.736 84.0227Z" fill="#8B52BD"/>
<path d="M111.631 96.1749L111.736 94.925L80.4982 80.5464L111.631 96.1749Z" fill="#8B52BD"/>
<path d="M147.801 24.0437L146.579 31.8581L148.352 32.459L152.586 25.5334L147.801 24.0437Z" fill="#8B52BD"/>
<path d="M159.795 33.0013L157.392 32.459L157.615 34.8634L159.795 34.0356L159.795 33.0013Z" fill="#EB7EFF"/>
<path d="M132.489 37.2752L132.161 35.4552L134.4 33.6612L135.766 38.4699L132.489 37.2752Z" fill="#EAB0F5"/>
<path d="M142.974 42.4286L144.53 37.2678L145.513 37.4192L146.579 43.2787L142.974 42.4286Z" fill="#976ADE"/>
<path d="M150.835 43.2787L154.989 40.8814L147.935 37.2678L146.579 37.9378L150.835 43.2787Z" fill="#8B52BD"/>
<path d="M111.819 84.153L146.579 62.5137L111.736 83.3831L111.819 84.153Z" fill="#EAB0F5"/>
<path d="M135.636 38.4699L142.974 36.137L142.701 34.9119L134.564 33.6612L135.636 38.4699Z" fill="#8B52BD"/>
<path d="M145.237 45.6831L143.796 45.2212L142.974 42.0765L146.579 43.2493" fill="#EB7EFF"/>
<path d="M156.191 43.3918L155.636 40.8743L151.385 43.5657L154.53 44.4809L156.191 43.3918Z" fill="#EAB0F5"/>
<path d="M157.392 35.3549L157.218 32.459L148.982 34.3771L149.326 36.0656" fill="#976ADE"/>
<path d="M95.2156 87.3026L96.1172 87.7596L84.1025 50.4918L95.2156 87.3026Z" fill="#EAB0F5"/>
<path d="M152.006 23.7588L149.901 22.8415L147.78 24.6354L152.586 26.4481L152.006 23.7588Z" fill="#EAB0F5"/>
<path d="M146.292 37.2678L147.78 36.3153L147.365 34.1204L145.71 33.6612L144.176 34.9677L144.495 36.9056L146.292 37.2678Z" fill="#BC6DDD"/>
<path d="M141.263 24.0437L142.974 24.7884L139.37 26.4481L139.651 24.5954L141.263 24.0437Z" fill="#EB7EFF"/>
<path d="M145.377 36.0656L129.898 72.5085L128.557 73.3333L145.377 36.0656Z" fill="#8B52BD"/>
<path d="M127.685 73.6317L145.377 36.0656L126.154 74.5355L127.685 73.6317Z" fill="#EAB0F5"/>
<path d="M144.332 33.6612L145.377 32.9833L142.947 25.2459L139.37 27.0465L144.332 33.6612Z" fill="#976ADE"/>
<path d="M82.9688 38.4699L84.1025 48.7005L83.4145 49.2896L81.6996 39.8866L82.9688 38.4699Z" fill="#8B52BD"/>
<path d="M81.19 50.4918L73.2894 48.3174L74.9385 46.8852L81.6997 49.9509L81.19 50.4918Z" fill="#8B52BD"/>
<path d="M79.9549 40.8743L82.9011 49.4916L81.93 50.4918L75.6923 44.744L79.9549 40.8743Z" fill="#976ADE"/>
<path d="M74.1295 46.8852L75.6924 47.036L73.3643 48.0874L73.2894 47.2833L74.1295 46.8852Z" fill="#EAB0F5"/>
<path d="M84.9883 46.8958L83.9442 48.0874L82.9011 37.895L85.3041 36.0656L84.9883 46.8958Z" fill="#976ADE"/>
<path d="M68.4835 51.6104L80.49 51.694L81.6996 50.9233L71.61 49.2896L68.4835 51.6104Z" fill="#976ADE"/>
<path d="M82.9011 36.7616L82.9923 38.4699L85.3041 36.8241L83.8784 36.0656L82.9011 36.7616Z" fill="#EB7EFF"/>
<path d="M68.4835 50.362L70.0834 49.2896L72.0879 49.6531L68.6945 51.694L68.4835 50.362Z" fill="#EB7EFF"/>
<path d="M80.4981 41.42L76.0571 44.4809L75.6923 42.0777L77.3271 40.8743L80.4981 41.42Z" fill="#EB7EFF"/>
<path d="M135.766 97.8439L135.53 97.377L114.139 103.296L114.443 104.59L135.766 97.8439Z" fill="#EAB0F5"/>
<path d="M144.176 90.1639L136.015 98.5792L136.015 98.0971L135.766 97.5147L144.176 90.1639Z" fill="#976ADE"/>
<path d="M84.1025 49.2896L83.3129 49.868L82.1857 50.9199L81.6996 51.694L82.321 51.4348L83.6517 50.1628L84.1025 49.2896Z" fill="#BC6DDD"/>
<path d="M81.6996 39.3178L81.9387 40.8743L82.9011 38.8714L82.1476 38.4699L81.6996 39.3178Z" fill="#EAB0F5"/>
<path d="M114.139 104.303L135.766 97.377L135.766 97.9804L114.366 105.792L114.139 104.303Z" fill="#8B52BD"/>
<path d="M84.1025 50.4918L94.9157 86.5574L93.6583 85.937L84.1025 50.4918Z" fill="#8B52BD"/>
<path d="M75.2013 61.7808L76.6926 61.3115L78.0952 63.6508L74.4908 64.918L75.2013 61.7808Z" fill="#EB7EFF"/>
<path d="M78.0952 77.0862L77.5762 78.1421L62.4762 75.4898L64.6935 70.929L78.0952 77.0862Z" fill="#8B52BD"/>
<path d="M92.5128 67.2688L91.3268 69.7268L88.9084 66.5648L91.4118 66.1202L92.5128 67.2688Z" fill="#EAB0F5"/>
<path d="M81.6996 77.0904L82.2191 78.1421L91.3113 70.1912L88.8649 66.1202L81.6996 77.0904Z" fill="#8B52BD"/>
<path d="M78.7953 63.7159L74.4908 64.8543L78.797 76.9399L80.4982 76.6706L78.7953 63.7159Z" fill="#976ADE"/>
<path d="M62.4762 81.5077L64.2839 86.5574L76.8938 81.8085L76.1213 80.5464L62.4762 81.5077Z" fill="#976ADE"/>
<path d="M124.592 49.2896L111.736 54.702L111.737 56.5027L126.154 55.4689L124.592 49.2896Z" fill="#976ADE"/>
<path d="M110.222 38.4699L108.132 52.4915L109.741 52.8962L116.542 40.6721L110.222 38.4699Z" fill="#8B52BD"/>
<path d="M90.8535 81.7486L81.6996 80.056L81.9834 79.1799L91.3113 78.1421L90.8535 81.7486Z" fill="#976ADE"/>
<path d="M76.8938 86.4139L85.3041 84.153L84.081 89.3396L80.3219 90.1639L76.8938 86.4139Z" fill="#EAB0F5"/>
<path d="M125.618 55.3005L129.758 52.436L128.788 49.887L123.751 49.2896L125.618 55.3005Z" fill="#EB7EFF"/>
<path d="M104.787 54.0984L105.729 53.0654L98.0428 39.6721L92.5128 44.422L104.787 54.0984Z" fill="#976ADE"/>
<path d="M85.3041 84.7433L76.8938 86.5574L78.9212 82.2002L80.7295 81.7486" fill="#8B52BD"/>
<path d="M116.244 40.8743L116.542 36.0899L113.414 34.8634L110.535 38.6534L116.244 40.8743Z" fill="#EAB0F5"/>
<path d="M62.4039 75.7377L64.8792 70.929L62.4035 71.39L61.2748 73.153" fill="#EAB0F5"/>
<path d="M106.061 58.2232L108.801 58.9071L110.535 57.2943L110.174 54.7734L107.483 54.0984L105.729 55.7078L106.061 58.2232Z" fill="#BC6DDD"/>
<path d="M80.4982 60.1517L86.1556 62.5137L86.5055 54.0984L80.9213 55.5343L80.4982 60.1517Z" fill="#EAB0F5"/>
<path d="M104.289 76.9399L96.1172 73.4169L105.205 60.1093L106.93 60.5742L104.289 76.9399Z" fill="#976ADE"/>
<path d="M64.8791 86.5574L62.8235 81.7486L60.0732 84.0033L60.8739 86.3916L64.8791 86.5574Z" fill="#EB7EFF"/>
<path d="M86.7601 54.0984L103.166 56.3301L103.326 57.9775L86.5055 62.5137L86.7601 54.0984Z" fill="#8B52BD"/>
<path d="M92.2748 44.4809L90.1099 39.7843L92.8312 37.2678L97.3187 39.7834L92.2748 44.4809Z" fill="#EB7EFF"/>
<path d="M123.751 66.619L111.734 58.9071L110.535 60.1572L118.957 72.1311L123.751 66.619Z" fill="#8B52BD"/>
<path d="M123.8 73.3333L126.154 70.7154L123.8 66.1202L118.945 72.1085L123.8 73.3333Z" fill="#EAB0F5"/>
<path d="M96.1172 73.3333L104.527 77.0984L99.9994 80.5465L96.1178 78.9217L96.1172 73.3333Z" fill="#EB7EFF"/>
<path d="M140.571 42.3304L133.801 46.8852L133.363 41.4189L136.308 39.6721L140.571 42.3304Z" fill="#EAB0F5"/>
<path d="M131.802 64.918L128.557 63.6887L128.557 61.5975L132.161 60.1093L131.802 64.918Z" fill="#EB7EFF"/>
<path d="M154.039 82.9508L151.385 80.1686L157.392 78.1421L157.034 81.7664L154.039 82.9508Z" fill="#EB7EFF"/>
<path d="M151.339 60.1093L162.198 46.8685L156.468 43.2787L148.982 58.8291L151.339 60.1093Z" fill="#976ADE"/>
<path d="M135.766 77.6207L140.63 80.5465L147.78 65.1166L145.53 63.7159L135.766 77.6207Z" fill="#8B52BD"/>
<path d="M145.377 61.1742L145.091 63.3821L130.96 64.918L131.272 60.1093L145.377 61.1742Z" fill="#976ADE"/>
<path d="M147.78 65.6214L150.379 64.918L157.392 78.5672L151.363 80.5464L147.78 65.6214Z" fill="#976ADE"/>
<path d="M140.571 79.7947L137.761 81.7486L135.766 80.5558L136.211 76.9399L140.571 79.7947Z" fill="#EAB0F5"/>
<path d="M139.814 42.0765L147.78 58.6462L145.371 60.1093L133.363 46.2881L139.814 42.0765Z" fill="#8B52BD"/>
<path d="M166.835 62.5137L169.407 64.7627L169.057 67.3231L165.802 68.5246L166.835 62.5137Z" fill="#EAB0F5"/>
<path d="M79.0721 80.5464L81.1649 80.168L81.6996 78.7194L80.7831 76.9399L78.8744 77.1176L78.0952 79.0229L79.0721 80.5464Z" fill="#BC6DDD"/>
<path d="M91.5283 78.1421L91.3114 81.7486L92.4516 80.7208L92.5129 79.4974L91.5283 78.1421Z" fill="#EB7EFF"/>
<path d="M151.385 62.8384L165.887 68.5246L167.004 62.1057L151.937 60.1093L151.385 62.8384Z" fill="#8B52BD"/>
<path d="M161.683 46.8852L162.198 42.6405L159.573 40.8743L156.19 43.2083L161.683 46.8852Z" fill="#EB7EFF"/>
<path d="M110.535 152.678L112.681 152.678L121.348 187.541L110.535 152.678Z" fill="#21ED94"/>
<path d="M122.549 184.755L121.444 186.339L112.938 152.129L114.328 150.273L122.549 184.755Z" fill="#8DFF1A"/>
<path d="M112.938 158.689L119.355 189.388L122.549 189.945L112.938 158.689Z" fill="#42B98C"/>
<path d="M111.842 150.521L110.535 152.678L112.747 152.677L114.139 150.273L111.842 150.521Z" fill="#FBFBFB"/>
<path d="M172.634 146.667L170.608 146.667L173.011 189.945L172.634 146.667Z" fill="#8DFF1A"/>
<path d="M164.601 161.66L167.626 197.158L170.608 146.667L164.601 161.66Z" fill="#00FF86"/>
<path d="M170.593 147.28L174.212 117.814L164.601 162.295L170.593 147.28Z" fill="#8DFF1A"/>
<path d="M162.198 194.999L167.004 197.158L164.205 162.295L162.198 194.999Z" fill="#0BAB5C"/>
<path d="M173.203 146.666L176.615 117.814L174.807 117.815L170.608 146.667L173.203 146.666Z" fill="#00FF86"/>
<path d="M186.155 155.082L188.63 149.071L186.154 149.647L185.026 151.851" fill="#EAB0F5"/>
<path d="M174.212 197.103L170.458 146.667L167.004 197.158L174.212 197.103Z" fill="#21ED94"/>
<path d="M134.346 169.508L132.161 148.256L138.251 125.027L140.571 125.47L134.346 169.508Z" fill="#8DFF1A"/>
<path d="M132.161 177.923L142.974 216.393L135.277 202.943L132.163 190.012L132.161 177.923Z" fill="#21ED94"/>
<path d="M132.161 177.637L136.967 193.552L132.686 147.869L132.161 177.637Z" fill="#00FF86"/>
<path d="M148.982 190.83L154.222 193.552L159.795 141.858L148.982 190.83Z" fill="#0BAB5C"/>
<path d="M159.795 141.21L156.769 133.443L148.982 191.148L159.795 141.21Z" fill="#21ED94"/>
<path d="M153.788 193.552L160.911 193.482L160.996 147.869L153.788 193.552Z" fill="#21ED94"/>
<path d="M162.113 141.858L159.795 141.858L171.022 85.3552L173.011 86.8722" fill="#8DFF1A"/>
<path d="M170.608 86.5574L168.058 87.75L156.19 134.231L159.182 141.858L170.608 86.5574Z" fill="#00FF86"/>
<path d="M161.119 148.538L162.198 141.858L159.633 141.858L153.788 193.552" fill="#00FF86"/>
<path d="M132.16 176.379L120.233 135.847L116.542 143.592L132.161 189.945L132.16 176.379Z" fill="#00FF86"/>
<path d="M132.161 189.636L116.542 143.06L121.86 191.148L132.161 189.636Z" fill="#21ED94"/>
<path d="M120.147 135.847L100.923 96.462L104.322 96.1749L120.147 135.847Z" fill="#00FF86"/>
<path d="M116.621 143.06L120.146 135.426L102.125 96.1749L116.621 143.06Z" fill="#8DFF1A"/>
<path d="M215.062 92.5683L192.698 143.06L188.63 134.87L215.062 92.5683Z" fill="#8DFF1A"/>
<path d="M215.062 92.6153L207.854 97.377L210.534 91.3661L215.062 92.6153Z" fill="#8DFF1A"/>
<path d="M182.912 193.552L173.011 190.414L192.234 143.06L182.912 193.552Z" fill="#42B98C"/>
<path d="M188.63 134.645L215.062 92.5683L208.107 97.1738L188.63 134.645Z" fill="#00FF86"/>
<path d="M192.234 143.06L186.797 193.34L183.824 193.552L192.234 143.06Z" fill="#21ED94"/>
<path d="M174.212 189.945L188.297 134.645L192.234 142.852L174.212 189.945Z" fill="#00FF86"/>
<path d="M144.176 137.049L138.168 158.051L142.386 164.699L144.176 137.049Z" fill="#8DFF1A"/>
<path d="M138.168 157.486L144.176 137.395L142.042 134.645L138.168 157.486Z" fill="#00FF86"/>
<path d="M138.168 191.262L146.579 192.35L142.663 164.699L138.168 191.262Z" fill="#21ED94"/>
<path d="M138.168 157.486L142.974 164.005L138.762 191.148L138.168 157.486Z" fill="#42B98C"/>
</svg>
