<svg width="119" height="175" viewBox="0 0 119 175" fill="none" xmlns="http://www.w3.org/2000/svg">
<path d="M-1.1907 95.6089L5.02412 100.781L-9.13108 119.526L-13.8209 116.686L-1.1907 95.6089Z" fill="#EF8901"/>
<path d="M5.04785 100.698L8.2445 100.172L-6.81252 119.801L-9.19898 119.5L5.04785 100.698Z" fill="#E1870A"/>
<path d="M27.1434 82.2113L25.7457 79.0631L5.09607 100.711L8.34261 100.206L27.1434 82.2113Z" fill="#EF8901"/>
<path d="M22.6051 74.6222L19.7314 72.8817L2.98945 89.4768L3.58019 93.9478L22.6051 74.6222Z" fill="#CF6D02"/>
<path d="M0.528316 97.0492L5.0972 100.711L25.7861 79.1324L22.6156 74.597L0.528316 97.0492Z" fill="#FE9400"/>
<path d="M3.61029 93.8745L-23.1744 67.2442L-25.4473 71.0321L0.489885 97.039L3.61029 93.8745Z" fill="#EF8901"/>
<path d="M3.01498 89.484L3.60517 93.8668L-23.1892 67.229L-17.5887 69.6653" fill="#E1870A"/>
<path d="M0.548322 97.0589L-25.432 71.0251L-25.9406 73.8318L-2.51163 99.6275L0.548322 97.0589Z" fill="#CF6D02"/>
<path d="M19.7117 72.903L22.5829 74.642L24.9325 49.8737L22.7494 49.4082L19.7117 72.903Z" fill="#C75E06"/>
<path d="M25.1118 49.9153L32.2061 10.3835L31.3688 8.46828L22.676 49.3019L25.1118 49.9153Z" fill="#CF6D02"/>
<path d="M30.3616 51.1939L34.6294 10.8548L32.1991 10.4643L25.0015 49.8986L30.3616 51.1939Z" fill="#EF8901"/>
<path d="M34.6012 10.894L36.2328 9.46875L33.1287 52.75L30.4286 51.1147L34.6012 10.894Z" fill="#E18000"/>
<path d="M33.2547 52.4838L32.4635 70.9667L29.5436 69.1983L30.3142 51.1589L33.2547 52.4838Z" fill="#CF6D02"/>
<path d="M22.5056 74.5315L29.4997 69.1866L30.3352 51.0917L24.988 49.9311L22.5056 74.5315Z" fill="#E1870A"/>
<path d="M32.1774 10.5011L34.6286 10.875L36.2393 9.46721L34.7772 8.12523L32.4816 7.6716L31.3727 8.47513L32.1774 10.5011Z" fill="#FE9400"/>
<path d="M89.2613 58.4207L92.2023 58.1214L85.7399 74.94L81.0547 75.5141L89.2613 58.4207Z" fill="#EF8901"/>
<path d="M83.3278 81.4609L81.7888 83.4595L62.1409 91.1419L60.9452 89.4306L83.3278 81.4609Z" fill="#CF6D02"/>
<path d="M73.307 115.157L51.7965 91.921L53.3665 88.5904L74.656 112.908L73.307 115.157Z" fill="#CF6D02"/>
<path d="M81.0688 75.512L83.2187 81.5317L60.8719 89.4397L54.3546 82.9156L81.0688 75.512Z" fill="#EF8901"/>
<path d="M25.6698 79.1824L27.1451 82.3095L51.8297 91.9849L53.4823 88.5805L25.6698 79.1824Z" fill="#E1870A"/>
<path d="M57.4664 84.6307L22.4473 74.5416L29.5233 69.1649L57.4664 84.6307Z" fill="#FE9400"/>
<path d="M57.3819 84.6021L53.4941 88.643L25.8256 79.3245L22.5355 74.4963L57.3819 84.6021Z" fill="#EF8901"/>
<path d="M77.1051 112.295L74.6659 112.936L53.3966 88.651L57.4386 84.5122L77.1051 112.295Z" fill="#FE9400"/>
<path d="M89.6098 82.2448L109.209 76.6879L106.234 74.4921L83.2085 81.5353L89.6098 82.2448Z" fill="#CF6D02"/>
<path d="M107.562 72.2843L106.234 74.4967L83.2074 81.5412L81.0534 75.5094L107.562 72.2843Z" fill="#FE9400"/>
<path d="M74.6297 112.92L73.3008 115.155L76.0098 114.662L77.1083 112.298L74.6297 112.92Z" fill="#C75E06"/>
<path d="M81.6493 83.5992L100.688 101.332L102.499 101.264L83.2104 81.5283L81.6493 83.5992Z" fill="#C75E06"/>
<path d="M102.365 101.335L103.338 98.3905L89.8966 82.1588L83.2106 81.5367L102.365 101.335Z" fill="#EF8901"/>
<path d="M8.96353 133.144L8.77724 128.172L-5.61401 128.08L-5.98925 131.434L8.96353 133.144Z" fill="#EF8901"/>
<path d="M-5.96997 131.435L-5.67591 133.317L6.85416 134.244L6.59637 132.302L-5.96997 131.435Z" fill="#CF6D02"/>
<path d="M8.82643 128.192L10.2773 126.826L-4.88011 126.844L-5.62647 128.123L8.82643 128.192Z" fill="#E1870A"/>
<path d="M26.0618 124.307L27.067 126.168L8.83814 128.163L10.2973 126.766L26.0618 124.307Z" fill="#EF8901"/>
<path d="M28.0479 129.363L27.818 131.418L13.5029 133.394L11.5538 131.433L28.0479 129.363Z" fill="#CF6D02"/>
<path d="M8.90725 131.765L8.83861 128.163L27.0484 126.122L28.0641 129.367L8.90725 131.765Z" fill="#FE9400"/>
<path d="M13.4746 170.792L11.4891 169.952L11.8086 154.183L14.5034 154.489L13.4746 170.792Z" fill="#CF6D02"/>
<path d="M13.4999 170.753L14.9375 169.6L17.2147 157.488L14.5035 154.473L13.4999 170.753Z" fill="#E18000"/>
<path d="M17.2902 157.679L28.7057 160.403L14.4977 154.47L17.2902 157.679Z" fill="#E1870A"/>
<path d="M14.5056 154.478L15.4322 150.854L28.9051 158.21L28.6578 160.421L14.5056 154.478Z" fill="#FE9400"/>
<path d="M1.61313 154.22L8.41099 142.746L9.22711 147.186L3.03734 156.081L1.61313 154.22Z" fill="#D16F02"/>
<path d="M11.6007 131.446L14.5089 154.494L11.8206 154.188L8.8979 131.787L11.6007 131.446Z" fill="#EF8901"/>
<path d="M3.01735 156.047L9.24734 147.147L9.71613 149.632L5.30124 155.246L3.01735 156.047Z" fill="#EF8901"/>
<path d="M13.509 133.379L11.6025 131.451L14.5108 154.507L15.4228 150.859" fill="#E1870A"/>
<path d="M10.2651 153.368L11.8505 154.174L11.4868 169.917L10.2229 168.722" fill="#C75E06"/>
<path d="M8.91023 131.752L11.8298 154.183L10.2774 153.382L6.51928 132.286L8.91023 131.752Z" fill="#CF6D02"/>
<path d="M27.8001 131.42L28.0299 129.367L40.9295 137.481L40.3391 138.722L27.8001 131.42Z" fill="#C75E06"/>
<path d="M40.9764 137.378L62.8158 148.694L63.4322 149.82L40.3633 138.798L40.9764 137.378Z" fill="#CF6D02"/>
<path d="M42.3193 134.334L63.4934 147.334L62.7741 148.668L40.9434 137.438L42.3193 134.334Z" fill="#EF8901"/>
<path d="M63.4638 147.333L64.7657 147.069L42.5988 132.4L42.3827 134.331L63.4638 147.333Z" fill="#E18000"/>
<path d="M42.775 132.438L33.5086 125.913L33.275 128.001L42.3184 134.37L42.775 132.438Z" fill="#CF6D02"/>
<path d="M28.0547 129.446L33.2642 128.027L42.3589 134.385L40.9225 137.432L28.0547 129.446Z" fill="#E1870A"/>
<path d="M62.7479 148.664L63.4831 147.327L64.7687 147.066L64.8733 148.282L64.235 149.574L63.4303 149.815L62.7479 148.664Z" fill="#FE9400"/>
<path d="M60.838 102.848L62.0831 101.523L51.5036 98.3915L49.4729 100.466L60.838 102.848Z" fill="#EF8901"/>
<path d="M47.4369 97.1318L45.8913 97.1365L34.8152 103.865L35.1986 105.089L47.4369 97.1318Z" fill="#CF6D02"/>
<path d="M52.3297 97.5269L51.4616 98.3973L62.0796 101.53L61.1993 99.9935L52.3297 97.5269Z" fill="#C75E06"/>
<path d="M27.3357 89.428L30.5687 108.629L32.7723 109.107L28.9312 89.6095L27.3357 89.428Z" fill="#CF6D02"/>
<path d="M49.4792 100.46L47.3615 97.1586L35.1667 105.122L35.8958 110.746L49.4792 100.46Z" fill="#EF8901"/>
<path d="M26.9807 126.16L26.0146 124.27L30.5499 108.589L32.8202 109.054L26.9807 126.16Z" fill="#E1870A"/>
<path d="M36.2272 108.585L28.028 129.471L33.2837 128.023L36.2272 108.585Z" fill="#FE9400"/>
<path d="M36.2095 108.636L32.7944 109.025L26.9701 126.031L28.083 129.444L36.2095 108.636Z" fill="#EF8901"/>
<path d="M30.1448 88.6421L28.9216 89.5944L32.754 109.07L36.2743 108.642L30.1448 88.6421Z" fill="#FE9400"/>
<path d="M60.9491 88.7212L60.8409 87.091L59.4207 86.2592L59.3802 88.5446L60.9491 88.7212Z" fill="#EF8901"/>
<path d="M49.4057 93.7688L59.432 86.2692L59.3854 88.5439L47.3562 97.1623L49.4057 93.7688Z" fill="#CF6D02"/>
<path d="M60.9531 88.7209L59.3829 88.5423L47.3527 97.1606L49.4747 100.469L60.9531 88.7209Z" fill="#FE9400"/>
<path d="M28.9156 89.6178L27.334 89.4314L28.5864 88.292L30.1445 88.6393L28.9156 89.6178Z" fill="#C75E06"/>
<path d="M45.7713 97.1525L44.2847 81.2169L44.9946 80.3577L47.3602 97.1641L45.7713 97.1525Z" fill="#C75E06"/>
<path d="M44.9104 80.3964L46.7031 81.0223L49.5546 93.6607L47.3561 97.1607L44.9104 80.3964Z" fill="#EF8901"/>
</svg>
