<svg width="357" height="353" viewBox="0 0 357 353" fill="none" xmlns="http://www.w3.org/2000/svg">
<path d="M43.6843 23.4477L16.2125 127.029M43.6843 23.4477L97.9755 3.05757L166.88 44.234M43.6843 23.4477L69.228 91.4608M16.2125 127.029L81.9365 147.956M16.2125 127.029L69.228 91.4608M16.2125 127.029L0.938417 160.677L35.7064 178.934M81.9365 147.956L69.228 91.4608M81.9365 147.956L122.403 151.479M81.9365 147.956L77.9779 211.732M81.9365 147.956L35.7064 178.934M69.228 91.4608L166.88 44.234M69.228 91.4608L194.822 135.853M166.88 44.234L154.706 87.9496M166.88 44.234L236.378 4.51745M166.88 44.234L161.637 1.27287L236.378 4.51745M194.822 135.853L154.706 87.9496M194.822 135.853L248.415 61.9455M194.822 135.853L122.403 151.479M194.822 135.853L245.137 143.847M194.822 135.853L231.322 186.817M154.706 87.9496L248.415 61.9455M248.415 61.9455L236.378 4.51745M248.415 61.9455L301.995 111.26L279.754 158.076M248.415 61.9455L245.137 143.847M245.137 143.847L279.754 158.076M122.403 151.479L77.9779 211.732M122.403 151.479L162.507 174.88M77.9779 211.732L162.414 212.697L122.381 255.644M77.9779 211.732L60.3538 244.561L35.7064 178.934M77.9779 211.732L80.8236 309.033L122.381 255.644M122.381 255.644L174.789 273.743M122.381 255.644L120.676 352.611M122.381 255.644L153.857 328.577L200.109 341.159M174.789 273.743L202.326 225.619M174.789 273.743L200.109 341.159M202.326 225.619L162.507 174.88M202.326 225.619L250.144 236.932M162.507 174.88L231.322 186.817M231.322 186.817L279.754 158.076M279.754 158.076L250.144 236.932M279.754 158.076L322.63 131.762L340.779 180.087L303.2 207.816L292.32 229.601L355.792 220.059L311.59 280.909M250.144 236.932L225.848 277.372M225.848 277.372L311.59 280.909M225.848 277.372L241.096 342.444L312.581 323.425L265.021 305.547L311.59 280.909M225.848 277.372L200.109 341.159" stroke="white" stroke-opacity="0.2" stroke-width="0.637295"/>
</svg>
