<svg width="280" height="377" viewBox="0 0 280 377" fill="none" xmlns="http://www.w3.org/2000/svg">
<path d="M55.4447 0.679398L-6.69158 87.9888M55.4447 0.679398H113.439L163.466 63.453M55.4447 0.679398V73.331M-6.69158 87.9888L47.4785 130.688M-6.69158 87.9888L55.4447 73.331M-6.69158 87.9888L-32.8207 114.118L-6.69158 143.433M47.4785 130.688L55.4447 73.331M47.4785 130.688L84.123 148.213M47.4785 130.688L21.3494 189M47.4785 130.688L-6.69158 143.433M55.4447 73.331L163.466 63.453M55.4447 73.331L157.412 159.047M163.466 63.453L136.7 100.097M163.466 63.453L242.491 50.7071M163.466 63.453L173.663 21.3915L242.491 50.7071M157.412 159.047L136.7 100.097M157.412 159.047L233.569 108.701M157.412 159.047L84.123 148.213M157.412 159.047L201.704 184.22M157.412 159.047L173.663 219.59M136.7 100.097L233.569 108.701M233.569 108.701L242.491 50.7071M233.569 108.701L266.389 173.705L229.108 209.712M233.569 108.701L201.704 184.22M201.704 184.22L229.108 209.712M84.123 148.213L21.3494 189M84.123 148.213L113.439 184.22M21.3494 189L100.055 219.59L47.4785 245.719M21.3494 189L-6.69158 213.536V143.433M21.3494 189L-10.1967 281.089L47.4785 245.719M47.4785 245.719L90.1773 281.089M47.4785 245.719L11.79 335.897M47.4785 245.719L51.3023 325.063L90.1773 353.104M90.1773 281.089L132.876 245.719M90.1773 281.089V353.104M132.876 245.719L113.439 184.22M132.876 245.719L173.663 273.123M113.439 184.22L173.663 219.59M173.663 219.59L229.108 209.712M229.108 209.712L173.663 273.123M229.108 209.712L278.498 200.153V251.774L233.569 264.52L215.724 281.089L278.498 294.472L215.724 335.897M173.663 273.123L136.7 302.439M136.7 302.439L215.724 335.897M136.7 302.439L128.096 368.717L201.704 376.046L163.466 342.588L215.724 335.897M136.7 302.439L90.1773 353.104" stroke="white" stroke-opacity="0.2" stroke-width="0.637295"/>
</svg>
